# xmcd
#
# Track frame offsets: 
#        150
#        13481
#        26935
#        40344
#        52225
#        72997
#        85633
#        97581
#        109102
#        123513
#        135664
#        150607
#        162206
#
# Disc length: 2342 seconds
#
# Revision: 0
# Processed by: cddbd v1.5.2PL0 Copyright (c) Steve Scherf et al.
# Submitted via: ExactAudioCopyFreeDBPlugin 1.0
#
DISCID=ac09240d
DTITLE=Spinney Brothers - Memories
DYEAR=2012
DGENRE=Bluegrass
TTITLE0=Memories
TTITLE1=The Train Song
TTITLE2=Old Roman Soldier
TTITLE3=Makin' a Killin'
TTITLE4=Chilly Winds
TTITLE5=One Date Late and a Dollar Short
TTITLE6=Truck Driver's Queen
TTITLE7=Rebels Ye Rest
TTITLE8=Sally's Waltz
TTITLE9=When the Walls Come Tumblin' Down
TTITLE10=Lying Ruby
TTITLE11=Cabin on a Mountain
TTITLE12=What a Wonderful Life
EXTD=
EXTT0=
EXTT1=
EXTT2=
EXTT3=
EXTT4=
EXTT5=
EXTT6=
EXTT7=
EXTT8=
EXTT9=
EXTT10=
EXTT11=
EXTT12=
PLAYORDER=
